<mxfile host="app.diagrams.net" agent="Mozilla/5.0 (Windows NT 10.0; Win64; x64; rv:135.0) Gecko/20100101 Firefox/135.0" version="26.0.15">
  <diagram name="Page-1" id="907H_8X75_HjY04pCW_Z">
    <mxGraphModel dx="5550" dy="2889" grid="1" gridSize="10" guides="1" tooltips="1" connect="1" arrows="1" fold="1" page="1" pageScale="1" pageWidth="850" pageHeight="1100" math="0" shadow="0">
      <root>
        <mxCell id="0" />
        <mxCell id="1" parent="0" />
        <mxCell id="Po-c8Y7y1Jj03TQiTFve-6" style="edgeStyle=orthogonalEdgeStyle;rounded=0;orthogonalLoop=1;jettySize=auto;html=1;exitX=0.5;exitY=1;exitDx=0;exitDy=0;entryX=0.5;entryY=0;entryDx=0;entryDy=0;" parent="1" source="Po-c8Y7y1Jj03TQiTFve-1" target="Po-c8Y7y1Jj03TQiTFve-2" edge="1">
          <mxGeometry relative="1" as="geometry" />
        </mxCell>
        <mxCell id="Po-c8Y7y1Jj03TQiTFve-7" value="&lt;div&gt;spirits of my family&lt;/div&gt;" style="edgeLabel;html=1;align=center;verticalAlign=middle;resizable=0;points=[];" parent="Po-c8Y7y1Jj03TQiTFve-6" vertex="1" connectable="0">
          <mxGeometry x="-0.1143" y="-1" relative="1" as="geometry">
            <mxPoint as="offset" />
          </mxGeometry>
        </mxCell>
        <mxCell id="Po-c8Y7y1Jj03TQiTFve-1" value="It feels… colder in here than I remember. I spent some time reaching out, but the spirits of my family are silent to me." style="rounded=0;whiteSpace=wrap;html=1;" parent="1" vertex="1">
          <mxGeometry x="120" y="-1040" width="350" height="60" as="geometry" />
        </mxCell>
        <mxCell id="Po-c8Y7y1Jj03TQiTFve-8" style="edgeStyle=orthogonalEdgeStyle;rounded=0;orthogonalLoop=1;jettySize=auto;html=1;exitX=0.5;exitY=1;exitDx=0;exitDy=0;entryX=0.5;entryY=0;entryDx=0;entryDy=0;" parent="1" source="Po-c8Y7y1Jj03TQiTFve-2" target="Po-c8Y7y1Jj03TQiTFve-3" edge="1">
          <mxGeometry relative="1" as="geometry" />
        </mxCell>
        <mxCell id="Po-c8Y7y1Jj03TQiTFve-9" value="&lt;div&gt;[Let her continue.]&lt;/div&gt;" style="edgeLabel;html=1;align=center;verticalAlign=middle;resizable=0;points=[];" parent="Po-c8Y7y1Jj03TQiTFve-8" vertex="1" connectable="0">
          <mxGeometry x="-0.05" y="-1" relative="1" as="geometry">
            <mxPoint as="offset" />
          </mxGeometry>
        </mxCell>
        <mxCell id="Po-c8Y7y1Jj03TQiTFve-10" style="edgeStyle=orthogonalEdgeStyle;rounded=0;orthogonalLoop=1;jettySize=auto;html=1;exitX=0.5;exitY=1;exitDx=0;exitDy=0;entryX=0.5;entryY=0;entryDx=0;entryDy=0;" parent="1" source="Po-c8Y7y1Jj03TQiTFve-2" target="Po-c8Y7y1Jj03TQiTFve-4" edge="1">
          <mxGeometry relative="1" as="geometry" />
        </mxCell>
        <mxCell id="Po-c8Y7y1Jj03TQiTFve-11" value="[Interrupt] Hey! They&#39;re dead, you&#39;re alive. And I&#39;d like to get paid." style="edgeLabel;html=1;align=center;verticalAlign=middle;resizable=0;points=[];" parent="Po-c8Y7y1Jj03TQiTFve-10" vertex="1" connectable="0">
          <mxGeometry x="0.1385" relative="1" as="geometry">
            <mxPoint as="offset" />
          </mxGeometry>
        </mxCell>
        <mxCell id="Po-c8Y7y1Jj03TQiTFve-12" style="edgeStyle=orthogonalEdgeStyle;rounded=0;orthogonalLoop=1;jettySize=auto;html=1;exitX=0.5;exitY=1;exitDx=0;exitDy=0;entryX=0.5;entryY=0;entryDx=0;entryDy=0;" parent="1" source="Po-c8Y7y1Jj03TQiTFve-2" target="Po-c8Y7y1Jj03TQiTFve-5" edge="1">
          <mxGeometry relative="1" as="geometry" />
        </mxCell>
        <mxCell id="Po-c8Y7y1Jj03TQiTFve-13" value="[Interrupt] Easy now, take a deep breath." style="edgeLabel;html=1;align=center;verticalAlign=middle;resizable=0;points=[];" parent="Po-c8Y7y1Jj03TQiTFve-12" vertex="1" connectable="0">
          <mxGeometry x="0.3643" y="1" relative="1" as="geometry">
            <mxPoint as="offset" />
          </mxGeometry>
        </mxCell>
        <mxCell id="Po-c8Y7y1Jj03TQiTFve-2" value="I haven&#39;t spoken with them in so long. I thought, foolishly, that they would want to speak with me given how long it has been and that I&#39;m now the last of the family still alive. But I thought wrong, even in death they want nothing to do with me. Nothing! They can&#39;t see past who they think I am, so they don&#39;t see the woman that I am and always have been. Aren&#39;t families supposed to love each other unconditionally?" style="rounded=0;whiteSpace=wrap;html=1;" parent="1" vertex="1">
          <mxGeometry x="120" y="-910" width="350" height="130" as="geometry" />
        </mxCell>
        <mxCell id="Po-c8Y7y1Jj03TQiTFve-17" style="edgeStyle=orthogonalEdgeStyle;rounded=0;orthogonalLoop=1;jettySize=auto;html=1;exitX=0.5;exitY=1;exitDx=0;exitDy=0;entryX=0.25;entryY=0;entryDx=0;entryDy=0;" parent="1" source="Po-c8Y7y1Jj03TQiTFve-3" target="Po-c8Y7y1Jj03TQiTFve-14" edge="1">
          <mxGeometry relative="1" as="geometry" />
        </mxCell>
        <mxCell id="Po-c8Y7y1Jj03TQiTFve-20" value="I&#39;m sorry to hear that your family pushed you away." style="edgeLabel;html=1;align=center;verticalAlign=middle;resizable=0;points=[];" parent="Po-c8Y7y1Jj03TQiTFve-17" vertex="1" connectable="0">
          <mxGeometry x="0.2" y="2" relative="1" as="geometry">
            <mxPoint x="1" as="offset" />
          </mxGeometry>
        </mxCell>
        <mxCell id="Po-c8Y7y1Jj03TQiTFve-18" style="edgeStyle=orthogonalEdgeStyle;rounded=0;orthogonalLoop=1;jettySize=auto;html=1;exitX=0.5;exitY=1;exitDx=0;exitDy=0;entryX=0.5;entryY=0;entryDx=0;entryDy=0;" parent="1" source="Po-c8Y7y1Jj03TQiTFve-3" target="Po-c8Y7y1Jj03TQiTFve-15" edge="1">
          <mxGeometry relative="1" as="geometry" />
        </mxCell>
        <mxCell id="Po-c8Y7y1Jj03TQiTFve-21" value="Was there anyone in your family who you had a good relationship with?" style="edgeLabel;html=1;align=center;verticalAlign=middle;resizable=0;points=[];" parent="Po-c8Y7y1Jj03TQiTFve-18" vertex="1" connectable="0">
          <mxGeometry x="0.3909" y="3" relative="1" as="geometry">
            <mxPoint as="offset" />
          </mxGeometry>
        </mxCell>
        <mxCell id="Po-c8Y7y1Jj03TQiTFve-19" style="edgeStyle=orthogonalEdgeStyle;rounded=0;orthogonalLoop=1;jettySize=auto;html=1;exitX=0.5;exitY=1;exitDx=0;exitDy=0;entryX=0.5;entryY=0;entryDx=0;entryDy=0;" parent="1" source="Po-c8Y7y1Jj03TQiTFve-3" target="Po-c8Y7y1Jj03TQiTFve-16" edge="1">
          <mxGeometry relative="1" as="geometry" />
        </mxCell>
        <mxCell id="Po-c8Y7y1Jj03TQiTFve-22" value="Just as..." style="edgeLabel;html=1;align=center;verticalAlign=middle;resizable=0;points=[];" parent="Po-c8Y7y1Jj03TQiTFve-19" vertex="1" connectable="0">
          <mxGeometry x="0.7984" y="4" relative="1" as="geometry">
            <mxPoint as="offset" />
          </mxGeometry>
        </mxCell>
        <mxCell id="Po-c8Y7y1Jj03TQiTFve-3" value="Ever since I… better understood who I am they pressured me to be who they wanted me to be. When that didn&#39;t work they turned to shame and mockery. Then it was denying what was promised to me as the firstborn, giving to my younger brothers Lletho and Jathys the family blade and armor. Eventually I took what I could and ran away. That was many years ago, and it was only recently that I received a letter from an old friend letting me know the fate of my family." style="rounded=0;whiteSpace=wrap;html=1;" parent="1" vertex="1">
          <mxGeometry x="-300" y="-610" width="350" height="130" as="geometry" />
        </mxCell>
        <mxCell id="Po-c8Y7y1Jj03TQiTFve-4" value="&lt;div&gt;Your pay, right, I had forgotten. Here&#39;s your 70 gold. I don&#39;t suppose you could help me out again by looking for a hidden section of the tomb?&lt;/div&gt;&lt;div&gt;/&lt;/div&gt;&lt;div&gt;It was 50 gold I promised right? Here. While you&#39;re here could I ask you to help me again by looking for a hidden section of the tomb?&lt;/div&gt;" style="rounded=0;whiteSpace=wrap;html=1;" parent="1" vertex="1">
          <mxGeometry x="120" y="-650" width="350" height="210" as="geometry" />
        </mxCell>
        <mxCell id="Po-c8Y7y1Jj03TQiTFve-5" value="I&#39;m sorry about that. Being here and trying to speak with them again has brought up a lot of old feelings, made worse because I can&#39;t hear my grandmother&#39;s spirit. I used to suspect that she was laid to rest in a hidden section of the tomb, and if that&#39;s true, then maybe that&#39;s why I can&#39;t hear her." style="rounded=0;whiteSpace=wrap;html=1;" parent="1" vertex="1">
          <mxGeometry x="570" y="-670" width="350" height="100" as="geometry" />
        </mxCell>
        <mxCell id="Po-c8Y7y1Jj03TQiTFve-14" value="Thank you %PCName. Coming here has brought up so many old feelings that I&#39;ve kept so very deeply buried. It hurts all the more that I don&#39;t even hear my grandmother&#39;s spirit, as she was the only one I ever had a good relationship with. I used to suspect that there is a hidden section of the tomb, and I am once again hoping there is one and that she was laid to rest there. Though I might just be letting myself be fooled by hope once again." style="rounded=0;whiteSpace=wrap;html=1;" parent="1" vertex="1">
          <mxGeometry x="-760" y="-265" width="350" height="140" as="geometry" />
        </mxCell>
        <mxCell id="Po-c8Y7y1Jj03TQiTFve-15" value="Yes, there was: my grandmother. I can&#39;t hear her either, which makes everything hurt all the more. I find myself hoping that there&#39;s a hidden section of the tomb, just as I once did, and that she&#39;s there. And that&#39;s why I can&#39;t hear her, but I&#39;m probably just letting myself be fooled by hope once again." style="rounded=0;whiteSpace=wrap;html=1;" parent="1" vertex="1">
          <mxGeometry x="-300" y="-260" width="350" height="130" as="geometry" />
        </mxCell>
        <mxCell id="Po-c8Y7y1Jj03TQiTFve-16" value="I… Thank you %PCName… That means a lot to me. [She is silent for a minute.] I&#39;ve always felt like a coward or that I was weak for running away, rather than sticking with it. Everything that I&#39;ve done has been to get as far away from my family. I think I&#39;ve been hurting myself. I had hoped to speak to my grandmother, but she too is silent. I once suspected that there is a hidden section in this tomb, and she&#39;s in there and that&#39;s why I can&#39;t hear her." style="rounded=0;whiteSpace=wrap;html=1;" parent="1" vertex="1">
          <mxGeometry x="110" y="-265" width="350" height="140" as="geometry" />
        </mxCell>
        <mxCell id="6HRQGlN3xS3Xlfp-Bm1q-2" style="edgeStyle=orthogonalEdgeStyle;rounded=0;orthogonalLoop=1;jettySize=auto;html=1;" parent="1" source="6HRQGlN3xS3Xlfp-Bm1q-1" edge="1">
          <mxGeometry relative="1" as="geometry">
            <mxPoint x="480" y="-890" as="targetPoint" />
            <Array as="points">
              <mxPoint x="570" y="-911" />
              <mxPoint x="501" y="-911" />
              <mxPoint x="501" y="-890" />
            </Array>
          </mxGeometry>
        </mxCell>
        <mxCell id="6HRQGlN3xS3Xlfp-Bm1q-1" value="Need a short bit here" style="text;html=1;align=center;verticalAlign=middle;resizable=0;points=[];autosize=1;strokeColor=#b85450;fillColor=#f8cecc;" parent="1" vertex="1">
          <mxGeometry x="500" y="-962" width="140" height="30" as="geometry" />
        </mxCell>
        <mxCell id="6HRQGlN3xS3Xlfp-Bm1q-3" value="&lt;div&gt;This can then be spoken from a new &quot;[Let her continue]&quot;.&lt;/div&gt;&lt;div&gt;Which sits as an option with the current &quot;[Interrupt]&quot;s&lt;/div&gt;" style="text;html=1;align=center;verticalAlign=middle;resizable=0;points=[];autosize=1;strokeColor=#b85450;fillColor=#f8cecc;" parent="1" vertex="1">
          <mxGeometry x="490" y="-850" width="320" height="40" as="geometry" />
        </mxCell>
        <mxCell id="6HRQGlN3xS3Xlfp-Bm1q-4" value="&lt;div&gt;This could be a more gruff/to-the-point line for the PC.&lt;/div&gt;&lt;div&gt;With an option to feed back into her little &quot;speech&quot;.&lt;/div&gt;&lt;div&gt;First: ask for pay -&amp;gt; please continue OR before I go, was there anything else?&lt;/div&gt;" style="text;html=1;align=center;verticalAlign=middle;resizable=0;points=[];autosize=1;strokeColor=#b85450;fillColor=#f8cecc;" parent="1" vertex="1">
          <mxGeometry x="325" y="-400" width="440" height="60" as="geometry" />
        </mxCell>
        <mxCell id="6HRQGlN3xS3Xlfp-Bm1q-5" style="edgeStyle=orthogonalEdgeStyle;rounded=0;orthogonalLoop=1;jettySize=auto;html=1;entryX=0.626;entryY=1.01;entryDx=0;entryDy=0;entryPerimeter=0;" parent="1" source="6HRQGlN3xS3Xlfp-Bm1q-4" target="Po-c8Y7y1Jj03TQiTFve-4" edge="1">
          <mxGeometry relative="1" as="geometry" />
        </mxCell>
        <mxCell id="IOSCpickuRpwtorIMnZY-4" style="edgeStyle=orthogonalEdgeStyle;rounded=0;orthogonalLoop=1;jettySize=auto;html=1;exitX=0.5;exitY=1;exitDx=0;exitDy=0;" edge="1" parent="1" source="IOSCpickuRpwtorIMnZY-1" target="IOSCpickuRpwtorIMnZY-3">
          <mxGeometry relative="1" as="geometry" />
        </mxCell>
        <mxCell id="IOSCpickuRpwtorIMnZY-5" value="spirits of my family" style="edgeLabel;html=1;align=center;verticalAlign=middle;resizable=0;points=[];" vertex="1" connectable="0" parent="IOSCpickuRpwtorIMnZY-4">
          <mxGeometry x="-0.0222" y="1" relative="1" as="geometry">
            <mxPoint as="offset" />
          </mxGeometry>
        </mxCell>
        <mxCell id="IOSCpickuRpwtorIMnZY-1" value="It feels… colder in here than I remember. I spent some time reaching out, but the spirits of my family are silent to me." style="rounded=0;whiteSpace=wrap;html=1;" vertex="1" parent="1">
          <mxGeometry x="110" y="40" width="350" height="60" as="geometry" />
        </mxCell>
        <mxCell id="IOSCpickuRpwtorIMnZY-2" value="&lt;font style=&quot;font-size: 32px; color: rgb(255, 51, 51);&quot;&gt;OLD&lt;/font&gt;" style="text;html=1;align=center;verticalAlign=middle;resizable=0;points=[];autosize=1;strokeColor=none;fillColor=none;" vertex="1" parent="1">
          <mxGeometry x="220" y="-1100" width="90" height="50" as="geometry" />
        </mxCell>
        <mxCell id="IOSCpickuRpwtorIMnZY-7" style="edgeStyle=orthogonalEdgeStyle;rounded=0;orthogonalLoop=1;jettySize=auto;html=1;exitX=0.5;exitY=1;exitDx=0;exitDy=0;entryX=0.5;entryY=0;entryDx=0;entryDy=0;" edge="1" parent="1" source="IOSCpickuRpwtorIMnZY-3" target="IOSCpickuRpwtorIMnZY-6">
          <mxGeometry relative="1" as="geometry" />
        </mxCell>
        <mxCell id="IOSCpickuRpwtorIMnZY-8" value="You&#39;ve been disowned?" style="edgeLabel;html=1;align=center;verticalAlign=middle;resizable=0;points=[];" vertex="1" connectable="0" parent="IOSCpickuRpwtorIMnZY-7">
          <mxGeometry x="0.1182" y="1" relative="1" as="geometry">
            <mxPoint as="offset" />
          </mxGeometry>
        </mxCell>
        <mxCell id="IOSCpickuRpwtorIMnZY-10" style="edgeStyle=orthogonalEdgeStyle;rounded=0;orthogonalLoop=1;jettySize=auto;html=1;exitX=0.5;exitY=1;exitDx=0;exitDy=0;entryX=0.5;entryY=0;entryDx=0;entryDy=0;" edge="1" parent="1" source="IOSCpickuRpwtorIMnZY-3" target="IOSCpickuRpwtorIMnZY-9">
          <mxGeometry relative="1" as="geometry" />
        </mxCell>
        <mxCell id="IOSCpickuRpwtorIMnZY-11" value="I&#39;m sorry to hear that, but I would like my gold before we continue." style="edgeLabel;html=1;align=center;verticalAlign=middle;resizable=0;points=[];" vertex="1" connectable="0" parent="IOSCpickuRpwtorIMnZY-10">
          <mxGeometry x="0.4109" y="2" relative="1" as="geometry">
            <mxPoint as="offset" />
          </mxGeometry>
        </mxCell>
        <mxCell id="IOSCpickuRpwtorIMnZY-3" value="They are here, as I can... sense their presence. No, they are choosing to keep me out. I am not family to them, and I haven&#39;t been for a long time." style="whiteSpace=wrap;html=1;" vertex="1" parent="1">
          <mxGeometry x="110" y="190" width="350" height="60" as="geometry" />
        </mxCell>
        <mxCell id="IOSCpickuRpwtorIMnZY-25" style="edgeStyle=orthogonalEdgeStyle;rounded=0;orthogonalLoop=1;jettySize=auto;html=1;exitX=0.5;exitY=1;exitDx=0;exitDy=0;" edge="1" parent="1" source="IOSCpickuRpwtorIMnZY-6" target="IOSCpickuRpwtorIMnZY-24">
          <mxGeometry relative="1" as="geometry" />
        </mxCell>
        <mxCell id="IOSCpickuRpwtorIMnZY-26" value="[Let her continue.]" style="edgeLabel;html=1;align=center;verticalAlign=middle;resizable=0;points=[];" vertex="1" connectable="0" parent="IOSCpickuRpwtorIMnZY-25">
          <mxGeometry x="0.8265" y="-1" relative="1" as="geometry">
            <mxPoint as="offset" />
          </mxGeometry>
        </mxCell>
        <mxCell id="IOSCpickuRpwtorIMnZY-28" style="edgeStyle=orthogonalEdgeStyle;rounded=0;orthogonalLoop=1;jettySize=auto;html=1;exitX=0.5;exitY=1;exitDx=0;exitDy=0;entryX=0.5;entryY=0;entryDx=0;entryDy=0;" edge="1" parent="1" source="IOSCpickuRpwtorIMnZY-6" target="IOSCpickuRpwtorIMnZY-27">
          <mxGeometry relative="1" as="geometry" />
        </mxCell>
        <mxCell id="IOSCpickuRpwtorIMnZY-29" value="I wouldn&#39;t know. I didn&#39;t know my parents." style="edgeLabel;html=1;align=center;verticalAlign=middle;resizable=0;points=[];" vertex="1" connectable="0" parent="IOSCpickuRpwtorIMnZY-28">
          <mxGeometry x="0.3357" relative="1" as="geometry">
            <mxPoint as="offset" />
          </mxGeometry>
        </mxCell>
        <mxCell id="IOSCpickuRpwtorIMnZY-6" value="Well, I haven&#39;t spoken with them since I ran away. I thought, hoped, that they would want to talk given how long it&#39;s been and that I&#39;m now the last of the family still alive. That they would finally accept me as I am. But I thought wrong, even in death they want nothing to do with me. Nothing! They can&#39;t see past who they want me to be, so they don&#39;t see the woman that I am and always have been. Aren&#39;t families supposed to love each other unconditionally?" style="rounded=0;whiteSpace=wrap;html=1;" vertex="1" parent="1">
          <mxGeometry x="-510" y="375" width="350" height="130" as="geometry" />
        </mxCell>
        <mxCell id="IOSCpickuRpwtorIMnZY-15" style="edgeStyle=orthogonalEdgeStyle;rounded=0;orthogonalLoop=1;jettySize=auto;html=1;exitX=0.5;exitY=1;exitDx=0;exitDy=0;entryX=0.5;entryY=0;entryDx=0;entryDy=0;" edge="1" parent="1" source="IOSCpickuRpwtorIMnZY-9" target="IOSCpickuRpwtorIMnZY-13">
          <mxGeometry relative="1" as="geometry" />
        </mxCell>
        <mxCell id="IOSCpickuRpwtorIMnZY-16" value="Before I go, is there anything else I could help with?" style="edgeLabel;html=1;align=center;verticalAlign=middle;resizable=0;points=[];" vertex="1" connectable="0" parent="IOSCpickuRpwtorIMnZY-15">
          <mxGeometry x="0.4095" y="2" relative="1" as="geometry">
            <mxPoint x="27" y="37" as="offset" />
          </mxGeometry>
        </mxCell>
        <mxCell id="IOSCpickuRpwtorIMnZY-17" style="edgeStyle=orthogonalEdgeStyle;rounded=0;orthogonalLoop=1;jettySize=auto;html=1;exitX=0.5;exitY=1;exitDx=0;exitDy=0;entryX=0.5;entryY=0;entryDx=0;entryDy=0;" edge="1" parent="1" source="IOSCpickuRpwtorIMnZY-9" target="IOSCpickuRpwtorIMnZY-14">
          <mxGeometry relative="1" as="geometry" />
        </mxCell>
        <mxCell id="IOSCpickuRpwtorIMnZY-18" value="[Leave] Good luck with your family." style="edgeLabel;html=1;align=center;verticalAlign=middle;resizable=0;points=[];" vertex="1" connectable="0" parent="IOSCpickuRpwtorIMnZY-17">
          <mxGeometry x="0.8579" relative="1" as="geometry">
            <mxPoint as="offset" />
          </mxGeometry>
        </mxCell>
        <mxCell id="IOSCpickuRpwtorIMnZY-19" style="edgeStyle=orthogonalEdgeStyle;rounded=0;orthogonalLoop=1;jettySize=auto;html=1;exitX=0.5;exitY=1;exitDx=0;exitDy=0;entryX=0.5;entryY=0;entryDx=0;entryDy=0;" edge="1" parent="1" source="IOSCpickuRpwtorIMnZY-9" target="IOSCpickuRpwtorIMnZY-6">
          <mxGeometry relative="1" as="geometry" />
        </mxCell>
        <mxCell id="IOSCpickuRpwtorIMnZY-20" value="So, your family. They don&#39;t like you very much?" style="edgeLabel;html=1;align=center;verticalAlign=middle;resizable=0;points=[];" vertex="1" connectable="0" parent="IOSCpickuRpwtorIMnZY-19">
          <mxGeometry x="0.6093" y="-1" relative="1" as="geometry">
            <mxPoint as="offset" />
          </mxGeometry>
        </mxCell>
        <mxCell id="IOSCpickuRpwtorIMnZY-9" value="&lt;div&gt;Your pay, right, I had forgotten. Here&#39;s your 70 gold.&lt;/div&gt;&lt;div&gt;/&lt;/div&gt;&lt;div&gt;Of course! You were here to help, not listen to me. It was 50 gold I promised right? Here you go.&lt;/div&gt;" style="whiteSpace=wrap;html=1;" vertex="1" parent="1">
          <mxGeometry x="110" y="390" width="350" height="100" as="geometry" />
        </mxCell>
        <mxCell id="IOSCpickuRpwtorIMnZY-12" value="aa" style="whiteSpace=wrap;html=1;" vertex="1" parent="1">
          <mxGeometry x="720" y="840" width="350" height="60" as="geometry" />
        </mxCell>
        <mxCell id="IOSCpickuRpwtorIMnZY-13" value="Well, while I can sense my family&#39;s spirits I can&#39;t work out who&#39;s who until they speak. I want to speak with my grandmother, but I don&#39;t know if she&#39;s here or in another part of the tomb. She should be in this room, and if she isn&#39;t then I can&#39;t help but wonder if there&#39;s a hidden section. Just as I once did many years ago." style="whiteSpace=wrap;html=1;" vertex="1" parent="1">
          <mxGeometry x="290" y="610" width="350" height="110" as="geometry" />
        </mxCell>
        <mxCell id="IOSCpickuRpwtorIMnZY-14" value="Good luck on your adventures too %PCClass. Thank you again for making my family&#39;s tomb safe for me." style="whiteSpace=wrap;html=1;" vertex="1" parent="1">
          <mxGeometry x="690" y="610" width="350" height="60" as="geometry" />
        </mxCell>
        <mxCell id="IOSCpickuRpwtorIMnZY-21" value="&lt;div&gt;End quest&lt;/div&gt;" style="text;html=1;align=center;verticalAlign=middle;resizable=0;points=[];autosize=1;strokeColor=#6c8ebf;fillColor=#dae8fc;" vertex="1" parent="1">
          <mxGeometry x="825" y="690" width="80" height="30" as="geometry" />
        </mxCell>
        <mxCell id="IOSCpickuRpwtorIMnZY-22" value="Continue through &quot;hidden section&quot; topic" style="text;html=1;align=center;verticalAlign=middle;resizable=0;points=[];autosize=1;strokeColor=#82b366;fillColor=#d5e8d4;" vertex="1" parent="1">
          <mxGeometry x="350" y="728" width="230" height="30" as="geometry" />
        </mxCell>
        <mxCell id="IOSCpickuRpwtorIMnZY-23" value="&lt;div&gt;set tlvoat_hasPCInterruptSpeech to 1&lt;/div&gt;" style="text;html=1;align=center;verticalAlign=middle;resizable=0;points=[];autosize=1;strokeColor=#6c8ebf;fillColor=#dae8fc;" vertex="1" parent="1">
          <mxGeometry x="355" y="770" width="220" height="30" as="geometry" />
        </mxCell>
        <mxCell id="IOSCpickuRpwtorIMnZY-41" style="edgeStyle=orthogonalEdgeStyle;rounded=0;orthogonalLoop=1;jettySize=auto;html=1;exitX=0.5;exitY=1;exitDx=0;exitDy=0;entryX=0.5;entryY=0;entryDx=0;entryDy=0;" edge="1" parent="1" source="IOSCpickuRpwtorIMnZY-24" target="IOSCpickuRpwtorIMnZY-40">
          <mxGeometry relative="1" as="geometry" />
        </mxCell>
        <mxCell id="IOSCpickuRpwtorIMnZY-42" value="Was there anyone in your family who you had a good relationship with?" style="edgeLabel;html=1;align=center;verticalAlign=middle;resizable=0;points=[];" vertex="1" connectable="0" parent="IOSCpickuRpwtorIMnZY-41">
          <mxGeometry x="0.5412" y="2" relative="1" as="geometry">
            <mxPoint y="-1" as="offset" />
          </mxGeometry>
        </mxCell>
        <mxCell id="IOSCpickuRpwtorIMnZY-45" style="edgeStyle=orthogonalEdgeStyle;rounded=0;orthogonalLoop=1;jettySize=auto;html=1;exitX=0.5;exitY=1;exitDx=0;exitDy=0;entryX=0.5;entryY=0;entryDx=0;entryDy=0;" edge="1" parent="1" source="IOSCpickuRpwtorIMnZY-24" target="IOSCpickuRpwtorIMnZY-44">
          <mxGeometry relative="1" as="geometry" />
        </mxCell>
        <mxCell id="IOSCpickuRpwtorIMnZY-46" value="I&#39;m sorry to hear that your family pushed you away." style="edgeLabel;html=1;align=center;verticalAlign=middle;resizable=0;points=[];" vertex="1" connectable="0" parent="IOSCpickuRpwtorIMnZY-45">
          <mxGeometry x="0.9176" y="2" relative="1" as="geometry">
            <mxPoint y="-1" as="offset" />
          </mxGeometry>
        </mxCell>
        <mxCell id="IOSCpickuRpwtorIMnZY-49" style="edgeStyle=orthogonalEdgeStyle;rounded=0;orthogonalLoop=1;jettySize=auto;html=1;exitX=0.5;exitY=1;exitDx=0;exitDy=0;entryX=0.5;entryY=0;entryDx=0;entryDy=0;" edge="1" parent="1" source="IOSCpickuRpwtorIMnZY-24" target="IOSCpickuRpwtorIMnZY-48">
          <mxGeometry relative="1" as="geometry" />
        </mxCell>
        <mxCell id="IOSCpickuRpwtorIMnZY-50" value="&lt;div&gt;Just as Ghostfence is a monument to Dunmer pride in overcoming our enemies,&lt;/div&gt;&lt;div&gt;so too should you in standing up for yourself against a family that should know better.&lt;/div&gt;" style="edgeLabel;html=1;align=center;verticalAlign=middle;resizable=0;points=[];" vertex="1" connectable="0" parent="IOSCpickuRpwtorIMnZY-49">
          <mxGeometry x="0.9064" y="1" relative="1" as="geometry">
            <mxPoint as="offset" />
          </mxGeometry>
        </mxCell>
        <mxCell id="IOSCpickuRpwtorIMnZY-24" value="It started when I… better understood who I am. They really didn&#39;t like that and so pressured me to be who they wanted me to be. When that didn&#39;t work they turned to shame and mockery. Then it was denying what was promised to me as the firstborn, giving to my younger brothers Lletho and Jathys the family blade and armor. Eventually I took what I could and ran away. That was many years ago, and it was only recently that I received a letter from an old friend letting me know the fate of my family." style="rounded=0;whiteSpace=wrap;html=1;" vertex="1" parent="1">
          <mxGeometry x="-1330" y="620" width="350" height="130" as="geometry" />
        </mxCell>
        <mxCell id="IOSCpickuRpwtorIMnZY-31" style="edgeStyle=orthogonalEdgeStyle;rounded=0;orthogonalLoop=1;jettySize=auto;html=1;exitX=0.5;exitY=1;exitDx=0;exitDy=0;entryX=0.5;entryY=0;entryDx=0;entryDy=0;" edge="1" parent="1" source="IOSCpickuRpwtorIMnZY-27" target="IOSCpickuRpwtorIMnZY-30">
          <mxGeometry relative="1" as="geometry" />
        </mxCell>
        <mxCell id="IOSCpickuRpwtorIMnZY-32" value="No one to love you, no happy memories." style="edgeLabel;html=1;align=center;verticalAlign=middle;resizable=0;points=[];" vertex="1" connectable="0" parent="IOSCpickuRpwtorIMnZY-31">
          <mxGeometry x="0.2546" relative="1" as="geometry">
            <mxPoint y="26" as="offset" />
          </mxGeometry>
        </mxCell>
        <mxCell id="IOSCpickuRpwtorIMnZY-35" style="edgeStyle=orthogonalEdgeStyle;rounded=0;orthogonalLoop=1;jettySize=auto;html=1;exitX=0.5;exitY=1;exitDx=0;exitDy=0;entryX=0.5;entryY=0;entryDx=0;entryDy=0;" edge="1" parent="1" source="IOSCpickuRpwtorIMnZY-27" target="IOSCpickuRpwtorIMnZY-34">
          <mxGeometry relative="1" as="geometry" />
        </mxCell>
        <mxCell id="IOSCpickuRpwtorIMnZY-36" value="That sounds like, despite the pain, you have some happy memories?" style="edgeLabel;html=1;align=center;verticalAlign=middle;resizable=0;points=[];" vertex="1" connectable="0" parent="IOSCpickuRpwtorIMnZY-35">
          <mxGeometry x="0.8236" y="-1" relative="1" as="geometry">
            <mxPoint x="1" y="15" as="offset" />
          </mxGeometry>
        </mxCell>
        <mxCell id="IOSCpickuRpwtorIMnZY-38" style="edgeStyle=orthogonalEdgeStyle;rounded=0;orthogonalLoop=1;jettySize=auto;html=1;exitX=0.5;exitY=1;exitDx=0;exitDy=0;entryX=0.5;entryY=0;entryDx=0;entryDy=0;" edge="1" parent="1" source="IOSCpickuRpwtorIMnZY-27" target="IOSCpickuRpwtorIMnZY-24">
          <mxGeometry relative="1" as="geometry" />
        </mxCell>
        <mxCell id="IOSCpickuRpwtorIMnZY-39" value="What happend?" style="edgeLabel;html=1;align=center;verticalAlign=middle;resizable=0;points=[];" vertex="1" connectable="0" parent="IOSCpickuRpwtorIMnZY-38">
          <mxGeometry x="0.5097" y="-1" relative="1" as="geometry">
            <mxPoint as="offset" />
          </mxGeometry>
        </mxCell>
        <mxCell id="IOSCpickuRpwtorIMnZY-27" value="Honestly that sounds like a blessing from the Tribunal. No one to judge you, no one to control you. You&#39;re free from the burden of lingering pain of what could, should, have been." style="whiteSpace=wrap;html=1;" vertex="1" parent="1">
          <mxGeometry x="-510" y="655" width="350" height="60" as="geometry" />
        </mxCell>
        <mxCell id="IOSCpickuRpwtorIMnZY-30" value="Well, that&#39;s... true. I&#39;m sorry %PCName, that was insensitive of me. [She&#39;s quiet for a minute.] My childhood happy memories are all of the times I was with grandmother. I loved how she could do so much with her magic. It&#39;s why I&#39;m learning I suppose. It hurts all the more because I can&#39;t hear her. She&#39;s silent. Yet I can&#39;t help but drag up an old hope that she&#39;s actually in a hidden section of the tomb." style="whiteSpace=wrap;html=1;" vertex="1" parent="1">
          <mxGeometry x="-445" y="833.57" width="350" height="120" as="geometry" />
        </mxCell>
        <mxCell id="IOSCpickuRpwtorIMnZY-33" value="Continue through &quot;hidden section&quot; topic" style="text;html=1;align=center;verticalAlign=middle;resizable=0;points=[];autosize=1;strokeColor=#82b366;fillColor=#d5e8d4;" vertex="1" parent="1">
          <mxGeometry x="-385" y="963.57" width="230" height="30" as="geometry" />
        </mxCell>
        <mxCell id="IOSCpickuRpwtorIMnZY-34" value="I do, and all of them are of my grandmother. I loved how she could do so much with her magic, how she could turn invisible or make someone like her more. Though she died before... I changed. I&#39;ve often wondered whether she&#39;d accept me, but this silence says not. Yet I can&#39;t help but drag up an old hope that she&#39;s actually in a hidden section of the tomb." style="whiteSpace=wrap;html=1;" vertex="1" parent="1">
          <mxGeometry x="-25" y="838.57" width="350" height="110" as="geometry" />
        </mxCell>
        <mxCell id="IOSCpickuRpwtorIMnZY-37" value="Continue through &quot;hidden section&quot; topic" style="text;html=1;align=center;verticalAlign=middle;resizable=0;points=[];autosize=1;strokeColor=#82b366;fillColor=#d5e8d4;" vertex="1" parent="1">
          <mxGeometry x="35" y="963.57" width="230" height="30" as="geometry" />
        </mxCell>
        <mxCell id="IOSCpickuRpwtorIMnZY-40" value="Yes, there was: my grandmother. I can&#39;t hear her either, which makes everything hurt all the more. I find myself hoping that there&#39;s a hidden section of the tomb, just as I once did, and that she&#39;s there. And that&#39;s why I can&#39;t hear her, but I&#39;m probably just letting myself be fooled by hope once again." style="rounded=0;whiteSpace=wrap;html=1;" vertex="1" parent="1">
          <mxGeometry x="-1330" y="842.85" width="350" height="101.43" as="geometry" />
        </mxCell>
        <mxCell id="IOSCpickuRpwtorIMnZY-43" value="Continue through &quot;hidden section&quot; topic" style="text;html=1;align=center;verticalAlign=middle;resizable=0;points=[];autosize=1;strokeColor=#82b366;fillColor=#d5e8d4;" vertex="1" parent="1">
          <mxGeometry x="-1270" y="963.57" width="230" height="30" as="geometry" />
        </mxCell>
        <mxCell id="IOSCpickuRpwtorIMnZY-44" value="Thank you %PCName. Coming here has brought up so many old feelings that I&#39;ve kept so very deeply buried. It hurts all the more that I don&#39;t even hear my grandmother&#39;s spirit, as she was the only one I ever had a good relationship with. I used to suspect that there is a hidden section of the tomb, and I am once again hoping there is one and that she was laid to rest there. Though I might just be letting myself be fooled by hope once again." style="rounded=0;whiteSpace=wrap;html=1;" vertex="1" parent="1">
          <mxGeometry x="-1780" y="823.57" width="350" height="140" as="geometry" />
        </mxCell>
        <mxCell id="IOSCpickuRpwtorIMnZY-47" value="Continue through &quot;hidden section&quot; topic" style="text;html=1;align=center;verticalAlign=middle;resizable=0;points=[];autosize=1;strokeColor=#82b366;fillColor=#d5e8d4;" vertex="1" parent="1">
          <mxGeometry x="-1720" y="973.57" width="230" height="30" as="geometry" />
        </mxCell>
        <mxCell id="IOSCpickuRpwtorIMnZY-54" style="edgeStyle=orthogonalEdgeStyle;rounded=0;orthogonalLoop=1;jettySize=auto;html=1;exitX=0.5;exitY=1;exitDx=0;exitDy=0;entryX=0.5;entryY=0;entryDx=0;entryDy=0;" edge="1" parent="1" source="IOSCpickuRpwtorIMnZY-48" target="IOSCpickuRpwtorIMnZY-52">
          <mxGeometry relative="1" as="geometry" />
        </mxCell>
        <mxCell id="IOSCpickuRpwtorIMnZY-56" value="&lt;div&gt;You are not weak. After all, you came back here to face the spirits of your family,&lt;/div&gt;&lt;div&gt;so that you can lay to rest your pain.&lt;/div&gt;" style="edgeLabel;html=1;align=center;verticalAlign=middle;resizable=0;points=[];" vertex="1" connectable="0" parent="IOSCpickuRpwtorIMnZY-54">
          <mxGeometry x="0.7919" y="3" relative="1" as="geometry">
            <mxPoint as="offset" />
          </mxGeometry>
        </mxCell>
        <mxCell id="IOSCpickuRpwtorIMnZY-55" style="edgeStyle=orthogonalEdgeStyle;rounded=0;orthogonalLoop=1;jettySize=auto;html=1;exitX=0.5;exitY=1;exitDx=0;exitDy=0;entryX=0.5;entryY=0;entryDx=0;entryDy=0;" edge="1" parent="1" source="IOSCpickuRpwtorIMnZY-48" target="IOSCpickuRpwtorIMnZY-53">
          <mxGeometry relative="1" as="geometry" />
        </mxCell>
        <mxCell id="IOSCpickuRpwtorIMnZY-57" value="&lt;div&gt;Correct, you&#39;re weak. Only because you&#39;ve had to expend your strength in carrying the burdens your family placed upon your shoulders.&lt;/div&gt;&lt;div&gt;From today you&#39;ll grow into the woman you&#39;re meant to be.&lt;/div&gt;" style="edgeLabel;html=1;align=center;verticalAlign=middle;resizable=0;points=[];" vertex="1" connectable="0" parent="IOSCpickuRpwtorIMnZY-55">
          <mxGeometry x="0.7978" y="-2" relative="1" as="geometry">
            <mxPoint as="offset" />
          </mxGeometry>
        </mxCell>
        <mxCell id="IOSCpickuRpwtorIMnZY-48" value="I… Thank you %PCName… That means a lot to me. [She is silent for a minute.] I&#39;ve always felt like a coward or that I was weak for running away, rather than sticking with it. Everything that I&#39;ve done has been to get as far away from my family. I think I&#39;ve been hurting myself. I had hoped to speak to my grandmother, but she too is silent. I once suspected that there is a hidden section in this tomb, and she&#39;s in there and that&#39;s why I can&#39;t hear her." style="rounded=0;whiteSpace=wrap;html=1;" vertex="1" parent="1">
          <mxGeometry x="-900" y="823.57" width="350" height="140" as="geometry" />
        </mxCell>
        <mxCell id="IOSCpickuRpwtorIMnZY-51" value="Temple" style="text;html=1;align=center;verticalAlign=middle;resizable=0;points=[];autosize=1;strokeColor=#6c8ebf;fillColor=#dae8fc;" vertex="1" parent="1">
          <mxGeometry x="-700" y="750" width="60" height="30" as="geometry" />
        </mxCell>
        <mxCell id="IOSCpickuRpwtorIMnZY-52" value="I had never thought about it like that before. I suppose that is why I&#39;m here: to finally get on with my life." style="whiteSpace=wrap;html=1;" vertex="1" parent="1">
          <mxGeometry x="-1110" y="1120" width="350" height="60" as="geometry" />
        </mxCell>
        <mxCell id="IOSCpickuRpwtorIMnZY-53" value="Thank you sera %PCName, I hope that&#39;s true. There&#39;s so much more that I want to do, like be a sorceress like grandmother." style="whiteSpace=wrap;html=1;" vertex="1" parent="1">
          <mxGeometry x="-700" y="1150" width="350" height="60" as="geometry" />
        </mxCell>
        <mxCell id="IOSCpickuRpwtorIMnZY-58" value="Continue through &quot;hidden section&quot; topic" style="text;html=1;align=center;verticalAlign=middle;resizable=0;points=[];autosize=1;strokeColor=#82b366;fillColor=#d5e8d4;" vertex="1" parent="1">
          <mxGeometry x="-1050" y="1210" width="230" height="30" as="geometry" />
        </mxCell>
        <mxCell id="IOSCpickuRpwtorIMnZY-59" value="Continue through &quot;hidden section&quot; topic" style="text;html=1;align=center;verticalAlign=middle;resizable=0;points=[];autosize=1;strokeColor=#82b366;fillColor=#d5e8d4;" vertex="1" parent="1">
          <mxGeometry x="-640" y="1230" width="230" height="30" as="geometry" />
        </mxCell>
      </root>
    </mxGraphModel>
  </diagram>
</mxfile>
